<svg id="Capa_1" enable-background="new 0 0 510.843 510.843" height="512" viewBox="0 0 510.843 510.843" width="512" xmlns="http://www.w3.org/2000/svg"><g><g><path d="m434.419 147.197-244.29 209.38-.25.21-11.79 2.16c-15.61 2.86-30.58-7.46-33.44-23.07l-26.54-144.65c-2.87-15.61 7.46-30.58 23.07-33.45l7.13-1.31 250.18-45.9c15.6-2.87 30.58 7.46 33.44 23.07z" fill="#6cf5c2"/><path d="m194.699 352.663-4.57 3.91-.25.21-11.79 2.16c-15.61 2.86-30.58-7.46-33.44-23.07l-26.54-144.65c-2.87-15.61 7.46-30.58 23.07-33.45l7.13-1.31 18.54-3.4c-13.46 4.4-21.92 18.17-19.29 32.48l26.54 144.62c2.05 11.19 10.33 19.66 20.6 22.5z" fill="#05e39c"/><path d="m474.867 345.131-249.891 45.859c-17.654 3.24-34.593-8.445-37.833-26.1l-25.185-137.236c-3.24-17.654 8.445-34.593 26.1-37.833l249.891-45.859c17.654-3.24 34.593 8.445 37.833 26.1l25.185 137.236c3.24 17.655-8.445 34.594-26.1 37.833z" fill="#6cf5c2"/><g fill="#05e39c"><circle cx="333.194" cy="268.198" r="58.775"/><path d="m236.329 388.913-11.35 2.08c-17.66 3.24-34.6-8.45-37.84-26.1l-25.18-137.24c-3.24-17.65 8.44-34.59 26.1-37.83l5.16-.95c-4.01 6.57-5.7 14.58-4.2 22.74l28.12 153.28c2.04 11.12 9.52 19.87 19.19 24.02z"/></g></g><g><path d="m510.176 305.962-12.38-68.13c-.741-4.076-4.648-6.777-8.72-6.039-4.075.741-6.779 4.645-6.038 8.72l12.382 68.144c1.205 6.565-.22 13.208-4.013 18.705s-9.498 9.188-16.09 10.398l-48.28 9.04c-4.072.763-6.754 4.681-5.992 8.752.675 3.605 3.824 6.121 7.363 6.121.458 0 49.644-9.165 49.644-9.165 10.506-1.929 19.634-7.834 25.702-16.629 6.069-8.793 8.349-19.423 6.422-29.917z"/><path d="m391.663 353.116-166.21 30.5c-6.573 1.205-13.219-.219-18.716-4.009-5.497-3.792-9.188-9.498-10.394-16.067l-25.18-137.23c-2.489-13.563 6.518-26.622 20.077-29.11l249.891-45.86c6.561-1.204 13.206.219 18.704 4.013 5.497 3.793 9.188 9.499 10.394 16.064l6.381 34.78c.748 4.075 4.662 6.771 8.73 6.023 4.074-.748 6.771-4.656 6.023-8.73l-6.381-34.78c-1.929-10.507-7.834-19.635-16.628-25.703-8.796-6.068-19.425-8.349-29.932-6.42l-.709.13-1.136-6.181c-1.746-9.52-7.096-17.788-15.062-23.282-7.965-5.493-17.596-7.556-27.113-5.81l-257.31 47.214c-19.646 3.604-32.697 22.524-29.092 42.175l26.542 144.657c3.201 17.446 18.478 29.69 35.62 29.69 2.162 0 4.355-.195 6.556-.599l4.415-.811.455 2.477c3.535 19.264 20.402 32.784 39.331 32.784 2.387 0 4.809-.215 7.239-.661l166.21-30.5c4.074-.748 6.771-4.657 6.023-8.73-.745-4.075-4.658-6.772-8.728-6.024zm-217.65-3.289c-11.518 2.115-22.603-5.534-24.714-17.045l-26.542-144.656c-2.112-11.516 5.534-22.603 17.045-24.714l257.31-47.214c5.577-1.026 11.224.185 15.89 3.404 4.667 3.219 7.801 8.063 8.824 13.642l1.135 6.181-234.427 43.022c-21.694 3.98-36.104 24.872-32.123 46.571l22.018 119.999z"/><path d="m267.014 267.481c0 36.544 29.73 66.275 66.274 66.275s66.275-29.731 66.275-66.275-29.731-66.275-66.275-66.275-66.274 29.732-66.274 66.275zm117.55 0c0 28.273-23.002 51.275-51.275 51.275-28.272 0-51.274-23.002-51.274-51.275s23.002-51.275 51.274-51.275c28.273.001 51.275 23.002 51.275 51.275z"/><path d="m9.283 314.803 45.228-11.056c4.024-.984 6.488-5.043 5.505-9.066s-5.043-6.484-9.066-5.505l-45.229 11.056c-4.024.984-6.488 5.043-5.505 9.066.837 3.426 3.903 5.721 7.28 5.721.589.001 1.189-.07 1.787-.216z"/><path d="m109.578 369.916-45.228 11.056c-4.024.984-6.488 5.043-5.505 9.066.837 3.426 3.903 5.721 7.28 5.721.589 0 1.189-.07 1.787-.216l45.228-11.056c4.024-.984 6.488-5.043 5.505-9.066s-5.043-6.485-9.067-5.505z"/><path d="m88.049 324.375-70.354 18.091c-4.012 1.032-6.428 5.12-5.396 9.131.871 3.385 3.917 5.634 7.258 5.634.618 0 1.247-.077 1.873-.238l70.354-18.091c4.012-1.032 6.428-5.12 5.396-9.131s-5.12-6.429-9.131-5.396z"/><path d="m88.906 295.923c.572 0 1.152-.065 1.732-.203l9.505-2.248c4.031-.954 6.526-4.994 5.573-9.025-.954-4.031-4.997-6.526-9.025-5.573l-9.505 2.248c-4.031.954-6.526 4.994-5.573 9.025.817 3.451 3.895 5.776 7.293 5.776z"/><path d="m28.067 391.182-17.086 4.021c-4.032.949-6.532 4.987-5.583 9.019.813 3.455 3.893 5.784 7.294 5.784.569 0 1.146-.065 1.724-.201l17.086-4.021c4.032-.949 6.532-4.987 5.583-9.019-.948-4.032-4.983-6.528-9.018-5.583z"/></g></g></svg>